<!DOCTYPE svg PUBLIC "-//W3C//DTD SVG 1.1//EN" "http://www.w3.org/Graphics/SVG/1.1/DTD/svg11.dtd">
<!-- Uploaded to: SVG Repo, www.svgrepo.com, Transformed by: SVG Repo Mixer Tools -->
<svg version="1.1" id="Layer_1" xmlns="http://www.w3.org/2000/svg" xmlns:xlink="http://www.w3.org/1999/xlink" viewBox="0 0 512 512" xml:space="preserve" width="800px" height="800px" fill="#000000">
<g id="SVGRepo_bgCarrier" stroke-width="0"/>
<g id="SVGRepo_tracerCarrier" stroke-linecap="round" stroke-linejoin="round"/>
<g id="SVGRepo_iconCarrier"> <g> <path style="fill:#a30000;" d="M322.625,512c5.058,0,9.481-3.369,10.835-8.243c18.08-65.072,29.178-145.035,29.178-210.646 c0-41.504-4.447-72.438-12.286-95.407H163.151c-7.84,22.969-12.286,53.903-12.286,95.407c0,65.611,11.099,145.575,29.178,210.646 c1.352,4.866,5.785,8.243,10.835,8.243L322.625,512L322.625,512z"/> <path style="fill:#a30000;" d="M355.465,82.088c-14.149,0-25.618-11.47-25.618-25.618V11.252C329.846,5.038,324.809,0,318.595,0 c-4.567,0-9.282,0-14.107,0c-4.243,0-8.128,2.39-10.044,6.175l-28.405,56.091c-1.916,3.784-5.797,6.169-10.039,6.169 c-4.242,0-8.122-2.385-10.039-6.169L217.558,6.175C215.642,2.394,211.753,0,207.513,0c-4.825,0-9.54,0-14.107,0 c-6.215,0-11.251,5.037-11.251,11.252V56.47c0,14.149-11.47,25.618-25.618,25.618c-3.108,0-6.058,1.365-8.071,3.733 c-2.012,2.368-2.883,5.5-2.381,8.567L163.15,198.71c13.951,0,180.503,0,185.7,0l17.065-104.322 c0.502-3.067-0.369-6.199-2.381-8.567C361.523,83.453,358.572,82.088,355.465,82.088z"/> </g> <path style="fill:#a30000;" d="M363.535,85.821c-2.012-2.368-4.963-3.733-8.071-3.733c-14.149,0-25.618-11.47-25.618-25.618V11.252 C329.846,5.038,324.809,0,318.595,0c-4.567,0-9.282,0-14.107,0c-4.243,0-8.128,2.39-10.044,6.175l-28.405,56.091 c-1.799,3.552-5.335,5.844-9.269,6.114V198.71c44.897,0,89.433,0,92.081,0l17.065-104.322 C366.418,91.322,365.547,88.189,363.535,85.821z"/> <path style="fill:#a30000;" d="M350.352,197.704H256.77V512h65.855c5.058,0,9.481-3.369,10.835-8.243 c18.08-65.071,29.178-145.035,29.178-210.646C362.638,251.608,358.191,220.673,350.352,197.704z"/> <rect x="158.891" y="172.689" style="fill:#3E3D41;" width="195.755" height="39.833"/> <rect x="255.959" y="172.689" style="fill:#2D2D2E;" width="98.688" height="39.833"/> <circle style="fill:#FACE17;" cx="256.004" cy="192.232" r="20.676"/> </g>
</svg>